<?xml version="1.0" encoding="UTF-8" standalone="no"?>
<svg width="449px" height="175px" viewBox="0 0 449 175" version="1.1" xmlns="http://www.w3.org/2000/svg" xmlns:xlink="http://www.w3.org/1999/xlink" xmlns:sketch="http://www.bohemiancoding.com/sketch/ns">
    <!-- Generator: Sketch 3.3.2 (12043) - http://www.bohemiancoding.com/sketch -->
    <title>jira_rgb_blue</title>
    <desc>Created with Sketch.</desc>
    <defs>
        <path id="path-1" d="M0,0.834 L448.443,0.834 L448.443,174.94 L0,174.94 L0,0.834 Z"/>
    </defs>
    <g id="Page-1" stroke="none" stroke-width="1" fill="none" fill-rule="evenodd" sketch:type="MSPage">
        <g id="jira_rgb_blue" sketch:type="MSLayerGroup">
            <path d="M223.858,42.859 L204.525,42.859 C202.786,42.859 201.375,44.269 201.375,46.008 L201.375,163.634 C201.375,165.375 202.786,166.785 204.525,166.785 L223.858,166.785 C225.598,166.785 227.009,165.375 227.009,163.634 L227.009,46.008 C227.009,44.269 225.598,42.859 223.858,42.859" id="Fill-1" fill="#274970" sketch:type="MSShapeGroup"/>
            <g id="Group-6">
                <mask id="mask-2" sketch:name="Clip 3" fill="white">
                    <use xlink:href="#path-1"/>
                </mask>
                <g id="Clip-3"/>
                <path d="M272.979,65.761 L297.475,65.761 C310.143,65.761 312.686,70.746 312.686,78.79 L312.686,90.803 C312.686,100.815 308.849,104.193 297.475,104.193 L272.979,104.193 L272.979,65.761 L272.979,65.761 Z M347.773,161.585 L320.856,122.757 C332.446,117.949 338.32,107.873 338.32,92.805 L338.32,76.97 C338.32,53.378 326.003,42.859 298.384,42.859 L250.496,42.859 C248.757,42.859 247.346,44.269 247.346,46.008 L247.346,163.634 C247.346,165.375 248.757,166.785 250.496,166.785 L269.829,166.785 C271.568,166.785 272.979,165.375 272.979,163.634 L272.979,126.744 L292.764,126.744 L319.672,165.433 C320.261,166.279 321.227,166.785 322.258,166.785 L345.361,166.785 L345.381,166.785 C347.121,166.785 348.531,165.375 348.531,163.634 C348.531,162.851 348.246,162.135 347.773,161.585 L347.773,161.585 Z" id="Fill-2" fill="#274970" sketch:type="MSShapeGroup" mask="url(#mask-2)"/>
                <path d="M411.211,45.062 C410.798,43.75 409.582,42.859 408.207,42.859 L378.812,42.859 C377.437,42.859 376.222,43.75 375.809,45.062 L338.723,162.687 C338.421,163.644 338.593,164.688 339.186,165.498 C339.779,166.308 340.723,166.785 341.727,166.785 L361.963,166.785 C363.359,166.785 364.589,165.867 364.984,164.527 L390.523,78.018 C390.523,78.018 391.191,75.857 393.504,75.857 C395.855,75.857 396.428,78.103 396.428,78.105 L408.277,119.129 L391.998,119.129 C390.587,119.129 389.348,120.067 388.966,121.425 L384.398,137.665 C384.131,138.615 384.324,139.634 384.92,140.419 C385.516,141.206 386.444,141.667 387.431,141.667 L414.902,141.667 L422.039,164.571 C422.449,165.888 423.668,166.785 425.047,166.785 L445.293,166.785 C446.297,166.785 447.24,166.308 447.833,165.498 C448.427,164.688 448.599,163.644 448.297,162.687 L411.211,45.062" id="Fill-4" fill="#274970" sketch:type="MSShapeGroup" mask="url(#mask-2)"/>
                <path d="M178.582,42.859 L159.014,42.859 C157.357,42.859 156.006,44.203 156.006,45.859 L156.006,137.901 C156.006,149.468 147.192,153.27 141.227,153.574 C140.423,153.613 139.487,154.12 138.973,154.871 C138.457,155.625 138.313,156.571 138.581,157.443 L143.339,172.919 C143.727,174.186 145.092,175 147.313,175 C166.036,175 181.582,160.3 181.582,140.596 L181.582,45.86 C181.582,45.064 181.267,44.3 180.703,43.737 C180.141,43.174 179.378,42.859 178.582,42.859" id="Fill-5" fill="#274970" sketch:type="MSShapeGroup" mask="url(#mask-2)"/>
            </g>
            <path d="M27.051,10.77 C21.039,10.77 16.171,15.632 16.171,21.659 C16.171,27.671 21.039,32.55 27.051,32.55 C33.068,32.55 37.931,27.671 37.931,21.659 C37.931,15.632 33.068,10.77 27.051,10.77" id="Fill-7" fill="#274970" sketch:type="MSShapeGroup"/>
            <path d="M98.531,10.77 C92.516,10.77 87.654,15.632 87.654,21.659 C87.654,27.671 92.516,32.55 98.531,32.55 C104.529,32.55 109.409,27.671 109.409,21.659 C109.409,15.632 104.529,10.778 98.531,10.77" id="Fill-8" fill="#274970" sketch:type="MSShapeGroup"/>
            <g id="Group-12" fill="#274970" sketch:type="MSShapeGroup">
                <path d="M62.791,0.834 C56.779,0.834 51.911,5.695 51.911,11.724 C51.911,17.736 56.779,22.616 62.791,22.616 C68.807,22.616 73.669,17.736 73.669,11.724 C73.669,5.695 68.807,0.834 62.791,0.834" id="Fill-9"/>
                <path d="M124.252,41.113 C123.646,40.653 122.919,40.414 122.181,40.414 C121.771,40.414 121.357,40.489 120.965,40.64 C113.598,43.457 106.117,45.596 99.289,47.187 C97.896,47.512 96.771,48.546 96.305,49.788 C91.33,63.415 78.627,76.391 65.299,89.982 C64.764,90.49 64.015,91.16 62.795,91.16 C61.578,91.16 60.836,90.511 60.291,89.982 C46.965,76.391 34.262,63.46 29.285,49.832 C28.818,48.591 27.693,47.557 26.303,47.231 C19.471,45.64 11.971,43.435 4.613,40.618 C4.219,40.468 3.805,40.393 3.394,40.393 C2.656,40.393 1.942,40.625 1.338,41.086 C0.394,41.806 -0.096,42.974 0.016,44.096 C1.144,55.428 5.622,66.506 13.703,78.115 C21.299,89.029 31.207,99.132 40.786,108.901 C58.436,126.904 75.109,143.907 76.572,163.624 C76.704,165.402 78.186,166.781 79.973,166.781 L100.709,166.781 C101.643,166.781 102.535,166.397 103.18,165.72 C103.822,165.044 104.162,164.136 104.115,163.202 C103.463,150.02 98.502,136.819 88.949,122.849 C86.947,119.92 84.803,117.07 82.561,114.281 C81.65,113.145 82.031,111.734 82.728,111.022 C83.417,110.317 84.109,109.614 84.805,108.901 C94.385,99.131 104.291,89.029 111.889,78.115 C119.969,66.505 124.445,55.492 125.574,44.162 C125.687,43.023 125.17,41.815 124.252,41.113" id="Fill-11"/>
            </g>
            <path d="M40.543,124.238 C40.053,123.725 39.332,123.201 38.122,123.201 C36.574,123.201 35.656,124.271 35.309,124.801 C26.587,138.074 22.082,150.601 21.459,163.19 C21.414,164.118 21.756,165.04 22.398,165.718 C23.043,166.392 23.947,166.781 24.879,166.781 L45.58,166.781 C47.361,166.781 48.861,165.387 48.992,163.611 C49.443,157.544 51.332,151.462 54.771,145.071 C55.963,142.86 55.037,140.783 54.351,139.895 C50.939,135.458 46.76,130.725 40.543,124.238" id="Fill-13" fill="#274970" sketch:type="MSShapeGroup"/>
            <path d="M62.814,51.272 C69.313,51.272 73.082,50.882 74.406,50.882 C76.01,50.882 77.543,52.196 77.543,54.036 C77.543,54.573 77.416,54.957 77.29,55.296 C76.428,57.6 72.5,65.89 65.187,73.001 C64.367,73.799 63.437,73.948 62.797,73.948 L62.789,73.948 C62.15,73.948 61.221,73.799 60.401,73.001 C53.088,65.89 49.159,57.6 48.299,55.296 C48.172,54.957 48.045,54.573 48.045,54.036 C48.045,52.196 49.58,50.882 51.184,50.882 C52.508,50.882 56.275,51.272 62.771,51.272 L62.814,51.272" id="Fill-14" fill="#274970" sketch:type="MSShapeGroup"/>
        </g>
    </g>
</svg>